<?xml version="1.0" encoding="UTF-8"?>
<svg version="1.1" viewBox="0 0 2048 2029" width="785" height="778" xmlns="http://www.w3.org/2000/svg">
<path transform="translate(0)" d="m0 0h2048v2029h-2048z" fill="#3A7C7B"/>
<path transform="translate(839,138)" d="m0 0 3 1-46 17-30 14-22 12-21 13-17 12-13 10-10 8-14 12-16 15-12 13-10 11-11 14-13 17-14 21-12 20-9 16-9 17-12 27-11 28-11 33-10 38-7 33-6 40-4 42v11l7 8 13 10 17 11 19 10 22 8 28 7 26 4 26 2 7 1 3-47 5-47 7-46 7-36 8-33 8-29 14-41 12-29 12-25 11-21 9-15 18-27 11-14 12-14 9-10 20-20 11-9 15-12 17-12 24-14 16-8 21-9 27-9 32-8 32-5 11-1h53l12 1v1l-12 1-30 1-31 3-27 5-23 6-22 8-20 9-19 10-19 12-16 12-14 12-15 14-7 7-9 11-11 13-13 18-14 22-13 23-15 31-11 27-9 25-9 28-9 35-8 36-7 41-5 39-3 33-2 43-1 11 35-4 39-7 41-10 29-8 61-20 16-6 9-43 8-32 12-40 12-35 17-41 16-33 13-23 14-22 12-16 13-16 15-16 10-9 13-11 21-14 16-8 14-6 20-6 17-3 13-1h23l22 3 25 6 22 8 27 12 18 10 1 2-9-3-25-10-28-7-21-3h-9l17 13 13 10 11 9 13 11 11 9 34 32v2h2l7 8 7 7 7 8 11 13 13 17 12 16 15 23 14 24 13 26 13 32 10 31 7 30 5 31 2 23v53l-2 21-4 23-5 21-2 1 1-12 2-22 1-19v-16l-3-40-5-32-7-30-12-37-11-26-13-27-16-27-16-24-14-19-11-13-9-11-12-13-11-12-10-10-8-7-8-8-11-9-10-9-14-11-18-14-18-13-17-11-23-14-5-3-10 1-20 7-22 11-16 11-14 12-10 9-9 10-12 15-15 22-6 10-1 4 5 2 20 14 16 11 19 14 13 10 14 11 11 9 13 11 14 12 12 11 8 7 41 41 7 8 13 15 11 13 13 17 11 15 12 18 13 21 12 22 11 23 11 28 7 22 7 28 4 24 2 18 1 19v14l-2 29-4 27-6 25-8 26-8 20-6 13-8 16-8 14-11 17-9 12-1-2 12-23 8-15 11-27 9-29 6-29 3-24v-47l-4-30-7-31-11-33-10-23-11-23-14-24-14-22-11-15-9-12-11-14-12-14-11-12-7-8-14-15-19-19-8-7-8-8-11-9-12-11-14-11-9-8-17-13-20-15-19-13-33-22-4-3h-2l-8 20-12 37-10 38-8 37-8 47-3 27 8 8 8 7 15 14 5 4v2l4 2 16 17 13 13 7 8 12 13 7 8 14 17 14 18 10 13 14 20 14 22 12 21 14 27 8 19 12 36 5 24 3 26v21l-3 22-6 22-6 15-11 21-8 11-8 10-9 10-15 15-10 8-16 12-22 14-20 11-2-1 16-11 13-10 10-9 8-7 14-15 10-13 11-17-9 3-28 12-35 13-36 12-37 10-36 7-25 4-29 3-16 1h-30l-34-2-31-4-30-6-29-8-26-9-24-11-25-13-19-12-18-13-10-8-14-12-10-10h3l18 14 20 14 21 12 29 14 24 9 22 7 26 6 30 5 37 3h34l39-3 37-5 30-6 36-9 36-11 29-10 37-15 34-16 26-13 3-2 4-20 1-10v-19l-2-20-5-25-6-20-8-20-8-17-8-14-2-4-19 9-26 13-29 13-35 15-29 11-28 10-45 14-30 8-33 7-30 5-39 4-16 1h-46l-38-4-26-5-26-7-23-8-20-9-21-11-20-13-19-14-15-14-10-9-11-12-11-14-10-13-14-22-13-24-12-28-8-22 1-3 10 19 12 22 22 33 11 14 12 13 9 10 14 13 14 11 18 13 19 11 16 8 21 9 28 9 27 6 27 4 22 2h50l38-4 26-4 38-8 31-8 56-18 43-17 23-10 40-19 25-13 22-12-2-4-11-14-11-13-11-12-7-8-14-15-9-9-8-7-9-9-8-7-10-9-11-9-10-9-10-8-16-13-11-8-42 13-30 8-40 9-39 7-38 5-36 3-21 1h-28l-42-4-23-4-26-7-24-9-16-8-14-8-12-9-11-10-8-7-11-14-10-15-10-19-8-22-6-24-3-19-2-24v-30h1l6 36 6 23 8 20 6 12v2h2v-9l6-40 7-36 8-32 10-32 13-34 13-28 12-23 12-20 14-21 9-12 11-14 12-14 15-16 14-14 11-9 11-10 17-13 36-24 18-10 15-8 27-12 28-10 26-8z" fill="#FDFDFD"/>
<path transform="translate(85,1439)" d="m0 0h89l16 3 12 5 13 9 7 8 8 16 3 13v20l-4 16-6 12-9 10-9 7-11 5-11 3-6 1-19 1h-32v75l-6 1h-34l-1-1-1-24v-179z" fill="#FDFDFD"/>
<path transform="translate(1517,1439)" d="m0 0h89l16 3 14 6 9 7 8 8 6 10 4 12 2 12v12l-3 16-5 12-7 10-9 8-15 8-11 3-7 1-18 1h-33v75l-11 1h-29l-1-1v-203z" fill="#FDFDFD"/>
<path transform="translate(1918,1486)" d="m0 0h17l17 3 12 5 10 6 10 9 8 11 7 16 3 14 1 10v12l-2 16-5 17-8 14-9 10-10 7-12 6-16 4-9 1h-12l-17-3-14-5-11-7-10-9-9-14-5-13-3-14v-31l4-18 8-16 8-10 9-8 10-6 15-5z" fill="#FDFDFD"/>
<path transform="translate(1288,1486)" d="m0 0h17l17 3 12 5 11 8 8 9 6 12 4 15 1 10v19l-2 7-1 1-100 1 4 15 5 10 7 6 9 4 4 1h18l11-4 8-6 7-9 6 2 22 14-1 5-8 11-8 8-11 7-11 4-9 2-9 1h-13l-14-2-16-5-13-7-9-8-9-13-5-11-4-16-1-9v-20l3-17 5-14 6-10 9-11 13-9 14-6z" fill="#FDFDFD"/>
<path transform="translate(479,1486)" d="m0 0h18l17 3 14 7 6 5 7 11 3 9 1 6 1 79 2 5 2 1h12l2 6 2 21-6 4-11 2h-11l-12-3-8-6-5-7-2-7h-2l-2 4-6 8-7 6-8 4-15 3h-9l-12-2-12-5-8-6-6-8-4-9-2-9v-17l3-10 6-9 7-7 14-7 18-5 24-5 10-4 5-4 1-2v-10l-4-6-8-3h-18l-13 4-11 6-12 10-3-1-15-22 1-4 8-8 13-8 11-5 16-4z" fill="#FDFDFD"/>
<path transform="translate(673,1486)" d="m0 0h18l17 3 12 5 9 6 8 8 7 12-2 4-19 13-5 4h-4l-7-11-7-6-8-3-6-1h-8l-12 3-8 6-4 5-5 12-2 12v17l3 15 5 10 5 5 8 5 6 2h15l11-4 8-7 6-10 2-4 6 1 24 13-1 7-7 13-9 10-11 8-13 5-17 3h-12l-18-3-15-6-11-7-10-10-8-13-6-18-2-11v-24l3-17 5-13 6-10 9-10 8-7 16-8 12-3z" fill="#FDFDFD"/>
<path transform="translate(1106,1486)" d="m0 0h18l17 3 12 5 10 7 7 7 6 10v5l-20 14-6 4-4-1-7-11-5-4-9-4-6-1h-8l-12 3-9 6-6 10-3 10-1 7v22l3 13 4 8 5 6 8 5 7 2h15l11-4 9-8 7-13 5 1 23 12 2 2-1 5-6 12-8 10-10 8-12 6-13 3-8 1h-12l-14-2-15-5-11-6-10-9-7-8-8-16-4-14-1-7v-27l3-16 5-12 5-9 9-11 12-9 13-6 12-3z" fill="#FDFDFD"/>
<path transform="translate(837,1453)" d="m0 0 5 1v35h43l1 29-1 2h-43l1 79 4 8 8 4h11l10-4 4-1 3 5 8 22-1 4-12 6-11 3-8 1h-11l-15-3-12-6-7-6-6-10-4-11-1-5-1-14v-72h-22l-1-1v-29l1-1h22v-29l4-2z" fill="#FDFDFD"/>
<path transform="translate(1787,1488)" d="m0 0h18l9 3 2 1-1 8-5 25-1 2-9-2h-17l-8 3-6 4-6 9-3 9-1 7-1 86-10 1h-29l-1-1v-152l1-2h37l1 2v21l3-3 8-11 8-6z" fill="#FDFDFD"/>
<path transform="translate(355,1488)" d="m0 0h18l9 3 2 4-6 29-1 3-10-2h-17l-9 4-7 6-5 11-2 9-1 19v68l-1 1-10 1h-28l-1-1v-153l1-1h36l1 1 1 22 3-3 7-10 7-6 9-4z" fill="#FDFDFD"/>
<path transform="translate(544,1777)" d="m0 0h9l11 2 12 6 8 8 5 10 3 14v15l-3 14-6 11-7 7-12 6-10 2h-9l-14-3-10-6-8-9-5-12-2-13v-9l2-13 4-10 4-6 7-7 10-5z" fill="#FDFDFD"/>
<path transform="translate(941,1489)" d="m0 0h38l1 2v151l-1 1-13 1h-24l-2-1v-153z" fill="#FDFDFD"/>
<path transform="translate(1211,1778)" d="m0 0h28l12 2 7 4 6 7 1 3v12l-4 8-5 4h-2v2l5 1 8 6 5 10v11l-3 9-7 8-9 4-4 1-47 1-2-1v-91z" fill="#FDFDFD"/>
<path transform="translate(1923,1519)" d="m0 0h8l11 3 9 6 6 9 4 11 1 7v23l-4 16-5 8-5 5-10 5-4 1h-16l-10-4-8-7-5-8-4-16v-23l2-10 5-12 7-8 11-5z" fill="#3A7C7B"/>
<path transform="translate(1368,1778)" d="m0 0h20l3 3 7 19 18 53 5 13v4h-19l-7-20h-34l-7 20h-19l3-10 12-35 11-33 5-12z" fill="#FDFDFD"/>
<path transform="translate(1571,1471)" d="m0 0h22l12 2 8 4 7 8 4 13v10l-3 11-6 9-12 6-5 1h-41v-63z" fill="#3A7C7B"/>
<path transform="translate(139,1471)" d="m0 0h22l13 2 8 5 6 7 4 11v14l-3 10-6 8-6 4-11 3h-40v-63z" fill="#3A7C7B"/>
<path transform="translate(931,1778)" d="m0 0h39l17 1 1 1v13l-1 1h-41v20l36 1 1 1v13l-1 1h-36v25h42l1 1v14l-38 1h-23l-1-1v-91z" fill="#FDFDFD"/>
<path transform="translate(362,1778)" d="m0 0h16l3 3 21 64 1 1 16-50 6-17h19l-3 11-22 65-5 14-1 1h-22l-7-19-13-38-10-30z" fill="#FDFDFD"/>
<path transform="translate(1052,1778)" d="m0 0h16l5 5 10 17 8 14 4-5 14-25 4-5 17-1 1 3-15 27-14 24-1 5-1 33h-18l-1-36-15-27-12-21-3-5z" fill="#FDFDFD"/>
<path transform="translate(545,1793)" d="m0 0h8l9 3 5 5 4 7 2 10v13l-3 12-4 6-6 5-9 2-10-1-8-5-4-5-3-8-1-15 2-14 5-9 8-5z" fill="#3A7C7B"/>
<path transform="translate(1621,1779)" d="m0 0h18l1 18v58h40l1 14-1 1-32 1h-26l-2-4v-87z" fill="#FDFDFD"/>
<path transform="translate(1492,1778)" d="m0 0 17 1v76h40l1 1v14l-38 1h-20l-2-2v-90z" fill="#FDFDFD"/>
<path transform="translate(796,1779)" d="m0 0h19v76h40l1 1v14l-34 1h-24l-2-4z" fill="#FDFDFD"/>
<path transform="translate(667,1779)" d="m0 0h18l1 33v43h39l1 1 1 13-1 1-32 1h-26l-1-1z" fill="#FDFDFD"/>
<path transform="translate(504,1568)" d="m0 0h4v22l-3 11-6 9-10 6-3 1h-14l-9-4-5-7-1-3v-12l4-8 8-5 28-7z" fill="#3A7C7B"/>
<path transform="translate(956,1425)" d="m0 0h7l9 3 8 6 4 9v10l-4 9-7 6-7 3h-13l-10-5-6-9-1-3v-11l4-9 7-6z" fill="#FDFDFD"/>
<path transform="translate(1287,1517)" d="m0 0h18l9 4 6 5 5 11 1 5v8h-64l1-7 4-11 7-9 9-5z" fill="#3A7C7B"/>
<path transform="translate(1218,1829)" d="m0 0h27l6 4 2 4v10l-3 5-4 3-6 1h-21l-1-1z" fill="#3A7C7B"/>
<path transform="translate(1218,1793)" d="m0 0h24l4 4 1 2v10l-5 5-2 1h-22z" fill="#3A7C7B"/>
<path transform="translate(1377,1798)" d="m0 0 3 3 10 31v2h-24l3-12z" fill="#3A7C7B"/>
</svg>
